<svg xmlns="http://www.w3.org/2000/svg" version="1.1" xmlns:xlink="http://www.w3.org/1999/xlink" xmlns:svgjs="http://svgjs.com/svgjs" width="1920" height="1080" preserveAspectRatio="none" viewBox="0 0 1920 1080"><g mask="url(&quot;#SvgjsMask1138&quot;)" fill="none"><rect width="1920" height="1080" x="0" y="0" fill="#0d0d0f"/><use xlink:href="#SvgjsSymbol1145" x="0" y="0"/><use xlink:href="#SvgjsSymbol1145" x="0" y="720"/><use xlink:href="#SvgjsSymbol1145" x="720" y="0"/><use xlink:href="#SvgjsSymbol1145" x="720" y="720"/><use xlink:href="#SvgjsSymbol1145" x="1440" y="0"/><use xlink:href="#SvgjsSymbol1145" x="1440" y="720"/></g><defs><mask id="SvgjsMask1138"><rect width="1920" height="1080" fill="#ffffff"/></mask><path d="M-1 0 a1 1 0 1 0 2 0 a1 1 0 1 0 -2 0z" id="SvgjsPath1141"/><path d="M-3 0 a3 3 0 1 0 6 0 a3 3 0 1 0 -6 0z" id="SvgjsPath1139"/><path d="M-5 0 a5 5 0 1 0 10 0 a5 5 0 1 0 -10 0z" id="SvgjsPath1140"/><path d="M2 -2 L-2 2z" id="SvgjsPath1143"/><path d="M6 -6 L-6 6z" id="SvgjsPath1142"/><path d="M30 -30 L-30 30z" id="SvgjsPath1144"/></defs><symbol id="SvgjsSymbol1145"><use xlink:href="#SvgjsPath1139" x="30" y="30" stroke="rgba(230, 145, 50, 0.2)"/><use xlink:href="#SvgjsPath1140" x="30" y="90" stroke="rgba(230, 145, 50, 0.2)"/><use xlink:href="#SvgjsPath1141" x="30" y="150" stroke="rgba(230, 145, 50, 0.2)"/><use xlink:href="#SvgjsPath1142" x="30" y="210" stroke="rgba(230, 145, 50, 0.2)"/><use xlink:href="#SvgjsPath1140" x="30" y="270" stroke="rgba(230, 145, 50, 0.2)"/><use xlink:href="#SvgjsPath1140" x="30" y="330" stroke="rgba(230, 145, 50, 0.2)"/><use xlink:href="#SvgjsPath1141" x="30" y="390" stroke="rgba(230, 145, 50, 0.2)"/><use xlink:href="#SvgjsPath1141" x="30" y="450" stroke="rgba(230, 145, 50, 0.2)"/><use xlink:href="#SvgjsPath1142" x="30" y="510" stroke="rgba(230, 145, 50, 0.2)"/><use xlink:href="#SvgjsPath1140" x="30" y="570" stroke="rgba(230, 145, 50, 0.2)"/><use xlink:href="#SvgjsPath1142" x="30" y="630" stroke="rgba(230, 145, 50, 0.2)"/><use xlink:href="#SvgjsPath1142" x="30" y="690" stroke="rgba(230, 145, 50, 0.2)"/><use xlink:href="#SvgjsPath1141" x="90" y="30" stroke="rgba(230, 145, 50, 0.2)"/><use xlink:href="#SvgjsPath1140" x="90" y="90" stroke="rgba(230, 145, 50, 0.2)"/><use xlink:href="#SvgjsPath1142" x="90" y="150" stroke="rgba(230, 145, 50, 0.2)"/><use xlink:href="#SvgjsPath1142" x="90" y="210" stroke="rgba(230, 145, 50, 0.2)"/><use xlink:href="#SvgjsPath1140" x="90" y="270" stroke="rgba(230, 145, 50, 0.2)"/><use xlink:href="#SvgjsPath1140" x="90" y="330" stroke="rgba(230, 145, 50, 0.2)"/><use xlink:href="#SvgjsPath1139" x="90" y="390" stroke="rgba(230, 145, 50, 0.2)"/><use xlink:href="#SvgjsPath1142" x="90" y="450" stroke="rgba(230, 145, 50, 0.2)"/><use xlink:href="#SvgjsPath1140" x="90" y="510" stroke="rgba(230, 145, 50, 0.2)"/><use xlink:href="#SvgjsPath1140" x="90" y="570" stroke="rgba(230, 145, 50, 0.2)"/><use xlink:href="#SvgjsPath1142" x="90" y="630" stroke="rgba(230, 145, 50, 0.2)"/><use xlink:href="#SvgjsPath1139" x="90" y="690" stroke="rgba(230, 145, 50, 0.2)"/><use xlink:href="#SvgjsPath1141" x="150" y="30" stroke="rgba(230, 145, 50, 0.2)"/><use xlink:href="#SvgjsPath1140" x="150" y="90" stroke="rgba(230, 145, 50, 0.2)"/><use xlink:href="#SvgjsPath1139" x="150" y="150" stroke="rgba(230, 145, 50, 0.2)"/><use xlink:href="#SvgjsPath1143" x="150" y="210" stroke="rgba(230, 145, 50, 0.2)"/><use xlink:href="#SvgjsPath1143" x="150" y="270" stroke="rgba(230, 145, 50, 0.2)"/><use xlink:href="#SvgjsPath1143" x="150" y="330" stroke="rgba(230, 145, 50, 0.2)"/><use xlink:href="#SvgjsPath1142" x="150" y="390" stroke="rgba(230, 145, 50, 0.2)"/><use xlink:href="#SvgjsPath1140" x="150" y="450" stroke="rgba(230, 145, 50, 0.2)"/><use xlink:href="#SvgjsPath1140" x="150" y="510" stroke="rgba(230, 145, 50, 0.2)"/><use xlink:href="#SvgjsPath1143" x="150" y="570" stroke="rgba(230, 145, 50, 0.2)"/><use xlink:href="#SvgjsPath1140" x="150" y="630" stroke="rgba(230, 145, 50, 0.2)"/><use xlink:href="#SvgjsPath1140" x="150" y="690" stroke="rgba(230, 145, 50, 0.2)"/><use xlink:href="#SvgjsPath1142" x="210" y="30" stroke="rgba(230, 145, 50, 0.2)"/><use xlink:href="#SvgjsPath1139" x="210" y="90" stroke="rgba(230, 145, 50, 0.2)"/><use xlink:href="#SvgjsPath1139" x="210" y="150" stroke="rgba(230, 145, 50, 0.2)"/><use xlink:href="#SvgjsPath1144" x="210" y="210" stroke="rgba(230, 145, 50, 0.2)" stroke-width="3"/><use xlink:href="#SvgjsPath1140" x="210" y="270" stroke="rgba(230, 145, 50, 0.2)"/><use xlink:href="#SvgjsPath1139" x="210" y="330" stroke="rgba(230, 145, 50, 0.2)"/><use xlink:href="#SvgjsPath1142" x="210" y="390" stroke="rgba(230, 145, 50, 0.2)"/><use xlink:href="#SvgjsPath1143" x="210" y="450" stroke="rgba(230, 145, 50, 0.2)"/><use xlink:href="#SvgjsPath1140" x="210" y="510" stroke="rgba(230, 145, 50, 0.2)"/><use xlink:href="#SvgjsPath1140" x="210" y="570" stroke="rgba(230, 145, 50, 0.2)"/><use xlink:href="#SvgjsPath1142" x="210" y="630" stroke="rgba(230, 145, 50, 0.2)"/><use xlink:href="#SvgjsPath1139" x="210" y="690" stroke="rgba(230, 145, 50, 0.2)"/><use xlink:href="#SvgjsPath1140" x="270" y="30" stroke="rgba(230, 145, 50, 0.2)"/><use xlink:href="#SvgjsPath1140" x="270" y="90" stroke="rgba(230, 145, 50, 0.2)"/><use xlink:href="#SvgjsPath1140" x="270" y="150" stroke="rgba(230, 145, 50, 0.2)"/><use xlink:href="#SvgjsPath1140" x="270" y="210" stroke="rgba(230, 145, 50, 0.2)"/><use xlink:href="#SvgjsPath1140" x="270" y="270" stroke="rgba(230, 145, 50, 0.2)"/><use xlink:href="#SvgjsPath1143" x="270" y="330" stroke="rgba(230, 145, 50, 0.2)"/><use xlink:href="#SvgjsPath1139" x="270" y="390" stroke="rgba(230, 145, 50, 0.2)"/><use xlink:href="#SvgjsPath1139" x="270" y="450" stroke="rgba(230, 145, 50, 0.2)"/><use xlink:href="#SvgjsPath1144" x="270" y="510" stroke="rgba(230, 145, 50, 0.2)" stroke-width="3"/><use xlink:href="#SvgjsPath1140" x="270" y="570" stroke="rgba(230, 145, 50, 0.2)"/><use xlink:href="#SvgjsPath1142" x="270" y="630" stroke="rgba(230, 145, 50, 0.2)"/><use xlink:href="#SvgjsPath1144" x="270" y="690" stroke="rgba(230, 145, 50, 0.2)" stroke-width="3"/><use xlink:href="#SvgjsPath1140" x="330" y="30" stroke="rgba(230, 145, 50, 0.2)"/><use xlink:href="#SvgjsPath1142" x="330" y="90" stroke="rgba(230, 145, 50, 0.2)"/><use xlink:href="#SvgjsPath1142" x="330" y="150" stroke="rgba(230, 145, 50, 0.2)"/><use xlink:href="#SvgjsPath1140" x="330" y="210" stroke="rgba(230, 145, 50, 0.2)"/><use xlink:href="#SvgjsPath1140" x="330" y="270" stroke="rgba(230, 145, 50, 0.2)"/><use xlink:href="#SvgjsPath1139" x="330" y="330" stroke="rgba(230, 145, 50, 0.2)"/><use xlink:href="#SvgjsPath1142" x="330" y="390" stroke="rgba(230, 145, 50, 0.2)"/><use xlink:href="#SvgjsPath1142" x="330" y="450" stroke="rgba(230, 145, 50, 0.2)"/><use xlink:href="#SvgjsPath1139" x="330" y="510" stroke="rgba(230, 145, 50, 0.2)"/><use xlink:href="#SvgjsPath1140" x="330" y="570" stroke="rgba(230, 145, 50, 0.2)"/><use xlink:href="#SvgjsPath1142" x="330" y="630" stroke="rgba(230, 145, 50, 0.2)"/><use xlink:href="#SvgjsPath1142" x="330" y="690" stroke="rgba(230, 145, 50, 0.2)"/><use xlink:href="#SvgjsPath1143" x="390" y="30" stroke="rgba(230, 145, 50, 0.2)"/><use xlink:href="#SvgjsPath1142" x="390" y="90" stroke="rgba(230, 145, 50, 0.2)"/><use xlink:href="#SvgjsPath1142" x="390" y="150" stroke="rgba(230, 145, 50, 0.2)"/><use xlink:href="#SvgjsPath1140" x="390" y="210" stroke="rgba(230, 145, 50, 0.2)"/><use xlink:href="#SvgjsPath1143" x="390" y="270" stroke="rgba(230, 145, 50, 0.2)"/><use xlink:href="#SvgjsPath1140" x="390" y="330" stroke="rgba(230, 145, 50, 0.2)"/><use xlink:href="#SvgjsPath1142" x="390" y="390" stroke="rgba(230, 145, 50, 0.2)"/><use xlink:href="#SvgjsPath1139" x="390" y="450" stroke="rgba(230, 145, 50, 0.2)"/><use xlink:href="#SvgjsPath1143" x="390" y="510" stroke="rgba(230, 145, 50, 0.2)"/><use xlink:href="#SvgjsPath1141" x="390" y="570" stroke="rgba(230, 145, 50, 0.2)"/><use xlink:href="#SvgjsPath1142" x="390" y="630" stroke="rgba(230, 145, 50, 0.2)"/><use xlink:href="#SvgjsPath1142" x="390" y="690" stroke="rgba(230, 145, 50, 0.2)"/><use xlink:href="#SvgjsPath1140" x="450" y="30" stroke="rgba(230, 145, 50, 0.2)"/><use xlink:href="#SvgjsPath1141" x="450" y="90" stroke="rgba(230, 145, 50, 0.2)"/><use xlink:href="#SvgjsPath1142" x="450" y="150" stroke="rgba(230, 145, 50, 0.2)"/><use xlink:href="#SvgjsPath1140" x="450" y="210" stroke="rgba(230, 145, 50, 0.2)"/><use xlink:href="#SvgjsPath1141" x="450" y="270" stroke="rgba(230, 145, 50, 0.2)"/><use xlink:href="#SvgjsPath1139" x="450" y="330" stroke="rgba(230, 145, 50, 0.2)"/><use xlink:href="#SvgjsPath1139" x="450" y="390" stroke="rgba(230, 145, 50, 0.2)"/><use xlink:href="#SvgjsPath1142" x="450" y="450" stroke="rgba(230, 145, 50, 0.2)"/><use xlink:href="#SvgjsPath1142" x="450" y="510" stroke="rgba(230, 145, 50, 0.2)"/><use xlink:href="#SvgjsPath1142" x="450" y="570" stroke="rgba(230, 145, 50, 0.2)"/><use xlink:href="#SvgjsPath1142" x="450" y="630" stroke="rgba(230, 145, 50, 0.2)"/><use xlink:href="#SvgjsPath1142" x="450" y="690" stroke="rgba(230, 145, 50, 0.2)"/><use xlink:href="#SvgjsPath1140" x="510" y="30" stroke="rgba(230, 145, 50, 0.2)"/><use xlink:href="#SvgjsPath1143" x="510" y="90" stroke="rgba(230, 145, 50, 0.2)"/><use xlink:href="#SvgjsPath1140" x="510" y="150" stroke="rgba(230, 145, 50, 0.2)"/><use xlink:href="#SvgjsPath1140" x="510" y="210" stroke="rgba(230, 145, 50, 0.2)"/><use xlink:href="#SvgjsPath1140" x="510" y="270" stroke="rgba(230, 145, 50, 0.2)"/><use xlink:href="#SvgjsPath1143" x="510" y="330" stroke="rgba(230, 145, 50, 0.2)"/><use xlink:href="#SvgjsPath1143" x="510" y="390" stroke="rgba(230, 145, 50, 0.2)"/><use xlink:href="#SvgjsPath1143" x="510" y="450" stroke="rgba(230, 145, 50, 0.2)"/><use xlink:href="#SvgjsPath1139" x="510" y="510" stroke="rgba(230, 145, 50, 0.2)"/><use xlink:href="#SvgjsPath1142" x="510" y="570" stroke="rgba(230, 145, 50, 0.2)"/><use xlink:href="#SvgjsPath1143" x="510" y="630" stroke="rgba(230, 145, 50, 0.2)"/><use xlink:href="#SvgjsPath1140" x="510" y="690" stroke="rgba(230, 145, 50, 0.2)"/><use xlink:href="#SvgjsPath1142" x="570" y="30" stroke="rgba(230, 145, 50, 0.2)"/><use xlink:href="#SvgjsPath1142" x="570" y="90" stroke="rgba(230, 145, 50, 0.2)"/><use xlink:href="#SvgjsPath1143" x="570" y="150" stroke="rgba(230, 145, 50, 0.2)"/><use xlink:href="#SvgjsPath1139" x="570" y="210" stroke="rgba(230, 145, 50, 0.2)"/><use xlink:href="#SvgjsPath1143" x="570" y="270" stroke="rgba(230, 145, 50, 0.2)"/><use xlink:href="#SvgjsPath1143" x="570" y="330" stroke="rgba(230, 145, 50, 0.2)"/><use xlink:href="#SvgjsPath1144" x="570" y="390" stroke="rgba(230, 145, 50, 0.2)" stroke-width="3"/><use xlink:href="#SvgjsPath1141" x="570" y="450" stroke="rgba(230, 145, 50, 0.2)"/><use xlink:href="#SvgjsPath1140" x="570" y="510" stroke="rgba(230, 145, 50, 0.2)"/><use xlink:href="#SvgjsPath1140" x="570" y="570" stroke="rgba(230, 145, 50, 0.2)"/><use xlink:href="#SvgjsPath1142" x="570" y="630" stroke="rgba(230, 145, 50, 0.2)"/><use xlink:href="#SvgjsPath1139" x="570" y="690" stroke="rgba(230, 145, 50, 0.2)"/><use xlink:href="#SvgjsPath1140" x="630" y="30" stroke="rgba(230, 145, 50, 0.2)"/><use xlink:href="#SvgjsPath1142" x="630" y="90" stroke="rgba(230, 145, 50, 0.2)"/><use xlink:href="#SvgjsPath1140" x="630" y="150" stroke="rgba(230, 145, 50, 0.2)"/><use xlink:href="#SvgjsPath1141" x="630" y="210" stroke="rgba(230, 145, 50, 0.2)"/><use xlink:href="#SvgjsPath1140" x="630" y="270" stroke="rgba(230, 145, 50, 0.2)"/><use xlink:href="#SvgjsPath1142" x="630" y="330" stroke="rgba(230, 145, 50, 0.2)"/><use xlink:href="#SvgjsPath1143" x="630" y="390" stroke="rgba(230, 145, 50, 0.2)"/><use xlink:href="#SvgjsPath1142" x="630" y="450" stroke="rgba(230, 145, 50, 0.2)"/><use xlink:href="#SvgjsPath1141" x="630" y="510" stroke="rgba(230, 145, 50, 0.2)"/><use xlink:href="#SvgjsPath1139" x="630" y="570" stroke="rgba(230, 145, 50, 0.2)"/><use xlink:href="#SvgjsPath1141" x="630" y="630" stroke="rgba(230, 145, 50, 0.2)"/><use xlink:href="#SvgjsPath1141" x="630" y="690" stroke="rgba(230, 145, 50, 0.2)"/><use xlink:href="#SvgjsPath1140" x="690" y="30" stroke="rgba(230, 145, 50, 0.2)"/><use xlink:href="#SvgjsPath1142" x="690" y="90" stroke="rgba(230, 145, 50, 0.2)"/><use xlink:href="#SvgjsPath1139" x="690" y="150" stroke="rgba(230, 145, 50, 0.2)"/><use xlink:href="#SvgjsPath1142" x="690" y="210" stroke="rgba(230, 145, 50, 0.2)"/><use xlink:href="#SvgjsPath1142" x="690" y="270" stroke="rgba(230, 145, 50, 0.2)"/><use xlink:href="#SvgjsPath1142" x="690" y="330" stroke="rgba(230, 145, 50, 0.2)"/><use xlink:href="#SvgjsPath1143" x="690" y="390" stroke="rgba(230, 145, 50, 0.2)"/><use xlink:href="#SvgjsPath1140" x="690" y="450" stroke="rgba(230, 145, 50, 0.2)"/><use xlink:href="#SvgjsPath1140" x="690" y="510" stroke="rgba(230, 145, 50, 0.2)"/><use xlink:href="#SvgjsPath1142" x="690" y="570" stroke="rgba(230, 145, 50, 0.2)"/><use xlink:href="#SvgjsPath1140" x="690" y="630" stroke="rgba(230, 145, 50, 0.2)"/><use xlink:href="#SvgjsPath1140" x="690" y="690" stroke="rgba(230, 145, 50, 0.2)"/></symbol></svg>
