<svg xmlns="http://www.w3.org/2000/svg" xml:space="preserve" width="371" height="255" style="color:#E69132;" viewBox="0 0 371 255"><path d="M0 12.8h-2.8a10 10 0 0 0-20 0h-2.8a12.8 12.8 0 0 1 25.6 0" style="fill:currentColor;fill-rule:nonzero" transform="translate(264.6)scale(6.1083)"/><path d="m307.2 251.6 64.8-78.8-63.6-77h-23.8l64.2 77.6-64.9 78.2zm-242.2 0L.2 172.8l63.6-77h23.9l-64.3 77.6 64.9 78.2z" style="fill:currentColor;fill-rule:nonzero;stroke-width:6.08796"/><path d="M0 .1v7.4h2.6V.1q.3 0 .6-.3a3.3 3.3 0 0 0-1.9-6 3.3 3.3 0 0 0-1.8 6zm14.1 12.7h-25.6v-25.5h25.6z" style="fill:currentColor;fill-rule:nonzero" transform="translate(178.5 173.4)scale(6.1083)"/></svg>
