<svg xmlns="http://www.w3.org/2000/svg" viewBox="0 0 143.36 19.54"><g id="Layer_2" data-name="Layer 2"><g id="Layer_1-2" data-name="Layer 1"><path d="M17.66,19V7.16L12.1,19h-3L3.55,7.23V19H0V1.6H4.52l6.19,13.21L16.83,1.6h4.45V19Z"/><path d="M23.15,4.59V1.46h3.76V4.59ZM23.22,19V6.26h3.62V19Z"/><path d="M37.68,9.94a1.78,1.78,0,0,0-1-1.18,4.79,4.79,0,0,0-2.22-.35c-2,0-3,.42-3,1.32a.9.9,0,0,0,.55.84,10.21,10.21,0,0,0,2.16.55l1.67.28a14.22,14.22,0,0,1,3.4.84,3.7,3.7,0,0,1,1.67,1.25,3.11,3.11,0,0,1,.49,1.94,3.4,3.4,0,0,1-1.67,3.06,9.54,9.54,0,0,1-5,1.05,9.26,9.26,0,0,1-5.07-1.12,4.35,4.35,0,0,1-2.09-3.33H31c.28,1.25,1.46,1.81,3.61,1.81a5.91,5.91,0,0,0,2.44-.35,1.13,1.13,0,0,0,.76-1.05,1,1,0,0,0-.62-.83A7.93,7.93,0,0,0,35,14.18L33.44,14a9.82,9.82,0,0,1-4.24-1.39A3.16,3.16,0,0,1,28,9.87,3.23,3.23,0,0,1,29.62,7a9.3,9.3,0,0,1,4.73-1,9.58,9.58,0,0,1,4.59.9A4.46,4.46,0,0,1,41,9.66Z"/><path d="M55.76,14.39a5.39,5.39,0,0,1-2.15,3.69,8.25,8.25,0,0,1-4.8,1.32,7.86,7.86,0,0,1-5.43-1.74,6.39,6.39,0,0,1-1.94-4.87,7.31,7.31,0,0,1,.83-3.61,6.23,6.23,0,0,1,2.57-2.44,7.94,7.94,0,0,1,4-.83,7.68,7.68,0,0,1,4.45,1.18,5.28,5.28,0,0,1,2.22,3.34l-3.61.42a2.79,2.79,0,0,0-1-1.6,3.16,3.16,0,0,0-1.94-.56,3.45,3.45,0,0,0-2.64,1,4.13,4.13,0,0,0-1,2.92,4.1,4.1,0,0,0,1,2.92A3.58,3.58,0,0,0,49,16.62a3.81,3.81,0,0,0,2.15-.56,2.67,2.67,0,0,0,1-1.67Z"/><path d="M56.53,19V6.26h3.54V8.34a5.72,5.72,0,0,1,4.59-2.29,9.35,9.35,0,0,1,1.39.14l-.42,3A9.22,9.22,0,0,0,64.24,9a4.29,4.29,0,0,0-3,1,2.92,2.92,0,0,0-1.11,2.23V19Z"/><path d="M68.48,13.49A3.23,3.23,0,0,0,69,15.23a3.15,3.15,0,0,0,1.39,1.11,5.31,5.31,0,0,0,2.09.42c1.87,0,3.06-.56,3.54-1.74h3.41a4.88,4.88,0,0,1-2.3,3.27,9.49,9.49,0,0,1-4.72,1.11,7.56,7.56,0,0,1-5.36-1.74,6.39,6.39,0,0,1-1.94-4.87,6.84,6.84,0,0,1,.9-3.54,6.23,6.23,0,0,1,2.57-2.44,8.55,8.55,0,0,1,3.9-.9A7.35,7.35,0,0,1,77.8,7.65a6,6,0,0,1,1.81,4.8v1.11Zm7.65-2.16a2.48,2.48,0,0,0-1-2.08,4.94,4.94,0,0,0-2.78-.77,4.78,4.78,0,0,0-2.57.77,2.66,2.66,0,0,0-1.19,2l7.58.07Z"/><path d="M90.25,19V17.24a8.84,8.84,0,0,1-2.37,1.6,8.22,8.22,0,0,1-2.92.49,6.14,6.14,0,0,1-3.82-1,3.3,3.3,0,0,1-1.32-2.86,3.34,3.34,0,0,1,1.74-3.12,11.84,11.84,0,0,1,5.56-1.12l3.13-.07v-.48A2.22,2.22,0,0,0,89.48,9a3.53,3.53,0,0,0-2.22-.56c-1.81,0-2.92.49-3.27,1.53l-3.41-.28a3.88,3.88,0,0,1,2.09-2.85,9.86,9.86,0,0,1,4.66-.9c4.24,0,6.32,1.67,6.32,5V19Zm-.14-5.7-3.06.07a7.84,7.84,0,0,0-2.85.49,1.44,1.44,0,0,0-.91,1.39,1.35,1.35,0,0,0,.7,1.18,3.18,3.18,0,0,0,2,.42,5.78,5.78,0,0,0,1.87-.28,3.6,3.6,0,0,0,1.46-.77,2.32,2.32,0,0,0,.91-1.87Z"/><path d="M105.33,19V11.47a2.67,2.67,0,0,0-.69-2,3,3,0,0,0-2.16-.63,3.75,3.75,0,0,0-1.53.28,4.35,4.35,0,0,0-1.32.83,2.94,2.94,0,0,0-1,2.16V19H95V6.26h3.62v2a6.39,6.39,0,0,1,5.28-2.43,5.46,5.46,0,0,1,3.83,1.25A4.9,4.9,0,0,1,109,10.71V19Z"/><path d="M119.59,18.7a12.57,12.57,0,0,1-3.55.56,4.58,4.58,0,0,1-3.48-1.11,5.15,5.15,0,0,1-1.11-3.41V9H109V6.26h2.43V2.92h3.62V6.33h4.17V9h-4.17v5.56a1.75,1.75,0,0,0,.48,1.39,1.83,1.83,0,0,0,1.46.42,7.74,7.74,0,0,0,2.16-.35Z"/><path d="M129.11,9.94a1.78,1.78,0,0,0-1-1.18,4.68,4.68,0,0,0-2.16-.35c-2,0-3,.42-3,1.32a.91.91,0,0,0,.56.84,7.14,7.14,0,0,0,2.16.48l1.66.28a14.18,14.18,0,0,1,3.41.84,3.77,3.77,0,0,1,1.67,1.25,3.65,3.65,0,0,1,.49,1.95,3.4,3.4,0,0,1-1.67,3.05,9.45,9.45,0,0,1-4.94,1,9.35,9.35,0,0,1-5.07-1.11A4.35,4.35,0,0,1,119.1,15h3.48c.27,1.25,1.53,1.81,3.61,1.81a5.68,5.68,0,0,0,2.43-.35,1.14,1.14,0,0,0,.77-1.05,1,1,0,0,0-.63-.83,7.87,7.87,0,0,0-2.22-.49l-1.53-.2a9,9,0,0,1-4.24-1.4,3.14,3.14,0,0,1-1.25-2.71A3.21,3.21,0,0,1,121.19,7a9.26,9.26,0,0,1,4.72-1,9.58,9.58,0,0,1,4.59.9,4.44,4.44,0,0,1,2.09,2.78Z"/><path d="M140,7.37V4.24L138.64,7.3h-.77l-1.46-3.06V7.3h-.9V2.85h1.18l1.6,3.41,1.6-3.41H141V7.37Z"/><path d="M138.22,10.29a5.15,5.15,0,1,1,5.14-5.15h0A5.22,5.22,0,0,1,138.22,10.29Zm0-9.39A4.26,4.26,0,0,0,134,5.14a4.24,4.24,0,1,0,8.48,0h0A4.22,4.22,0,0,0,138.22.9Z"/></g></g></svg>