<?xml version="1.0" encoding="UTF-8" standalone="no"?>
<!-- Created with Inkscape (http://www.inkscape.org/) -->

<svg
   width="186.21797mm"
   height="65.978996mm"
   viewBox="0 0 186.21797 65.978996"
   version="1.1"
   id="svg1"
   xml:space="preserve"
   sodipodi:docname="ritsec-logo.svg"
   inkscape:version="1.4.2 (f4327f4, 2025-05-13)"
   xmlns:inkscape="http://www.inkscape.org/namespaces/inkscape"
   xmlns:sodipodi="http://sodipodi.sourceforge.net/DTD/sodipodi-0.dtd"
   xmlns="http://www.w3.org/2000/svg"
   xmlns:svg="http://www.w3.org/2000/svg"><sodipodi:namedview
     id="namedview1"
     pagecolor="#ffffff"
     bordercolor="#000000"
     borderopacity="0.25"
     inkscape:showpageshadow="2"
     inkscape:pageopacity="0.0"
     inkscape:pagecheckerboard="0"
     inkscape:deskcolor="#d1d1d1"
     inkscape:document-units="mm"
     inkscape:zoom="2.2556397"
     inkscape:cx="367.7449"
     inkscape:cy="127.23663"
     inkscape:window-width="2496"
     inkscape:window-height="1558"
     inkscape:window-x="2869"
     inkscape:window-y="-11"
     inkscape:window-maximized="1"
     inkscape:current-layer="layer1" /><defs
     id="defs1" /><g
     inkscape:label="Layer 1"
     inkscape:groupmode="layer"
     id="layer1"
     transform="translate(-84.171243,-116.90071)"><path
       style="fill:#e89135;fill-opacity:1"
       d="m 91.62081,162.28456 c -2.44043,-2.94679 -5.11494,-6.18057 -5.943357,-7.18616 l -1.50621,-1.82836 1.244228,-1.48946 c 0.684329,-0.8192 3.327819,-4.0131 5.874439,-7.09755 l 4.63021,-5.60809 2.19842,-0.004 c 1.69106,-0.003 2.1517,0.0726 1.99595,0.32695 -0.17657,0.28842 -3.60258,4.45439 -9.64448,11.72753 l -1.77472,2.13639 5.79522,7.06962 c 3.18738,3.88828 5.79523,7.12386 5.79523,7.19017 0,0.0663 -0.95125,0.12056 -2.11389,0.12056 h -2.11389 z m 104.55049,5.09403 c -2.53839,-0.3722 -5.55196,-1.66823 -7.18284,-3.0891 l -0.85874,-0.74816 1.41393,-1.57468 1.41393,-1.57468 1.2969,0.82211 c 2.67933,1.69845 6.25494,2.33412 8.86358,1.57577 1.95761,-0.56909 2.67652,-1.37618 2.82544,-3.17195 0.22877,-2.75866 -0.86318,-3.6651 -5.18866,-4.30718 -4.92464,-0.73102 -6.83252,-1.82233 -8.26189,-4.72578 -0.79671,-1.61835 -0.83695,-1.84207 -0.72585,-4.03576 0.0849,-1.67668 0.27426,-2.62498 0.68099,-3.41055 0.82268,-1.5889 3.0226,-3.45834 4.63222,-3.93635 1.72088,-0.51104 5.46156,-0.51382 7.41313,-0.006 1.81827,0.4736 4.65274,1.8626 4.85002,2.3767 0.14149,0.36871 -1.86212,3.57931 -2.2337,3.57931 -0.10772,0 -0.43071,-0.16132 -0.71775,-0.3585 -2.19985,-1.51114 -6.55387,-2.07034 -8.43515,-1.08335 -2.69066,1.41163 -2.59496,4.92794 0.17331,6.36812 0.39969,0.20794 1.87843,0.55096 3.28608,0.76227 1.40765,0.21131 3.12499,0.57208 3.81632,0.8017 1.70457,0.56617 3.4959,2.20834 4.37994,4.01525 0.96375,1.96984 1.01356,5.03757 0.11557,7.11772 -1.57956,3.65893 -5.99624,5.41791 -11.55678,4.60259 z m 45.92377,-0.0838 c -2.76703,-0.61866 -5.53495,-2.85529 -6.64828,-5.37215 -1.45772,-3.29542 -1.34362,-14.88366 0.17715,-17.99201 0.87487,-1.78817 3.20622,-3.89615 5.08746,-4.6 1.99101,-0.74494 5.33977,-0.72592 7.39216,0.042 2.5753,0.96354 5.24186,4.19783 5.80169,7.03691 l 0.16956,0.8599 h -2.25843 -2.25843 l -0.57985,-1.19782 c -2.04787,-4.23034 -8.18399,-3.75659 -9.67996,0.74736 -0.36466,1.0979 -0.4539,2.33737 -0.45121,6.26732 0.004,5.50276 0.2189,6.68427 1.47841,8.11877 2.45009,2.7905 6.31717,2.49498 8.37915,-0.64032 l 0.91354,-1.38902 h 2.21634 2.21634 l -0.18615,0.8599 c -0.3191,1.47407 -1.6133,3.72239 -2.80986,4.88136 -2.217,2.14737 -5.77142,3.0907 -8.95963,2.37786 z M 103.72533,153.22258 v -14.1552 h 14.1552 14.15521 v 14.1552 14.15521 h -14.15521 -14.1552 z m 15.61041,3.97806 c 0,-3.85648 0.0312,-4.10845 0.54333,-4.38251 0.79195,-0.42384 1.57121,-1.84268 1.57235,-2.86285 0.002,-1.45993 -0.70862,-2.59789 -2.01668,-3.23111 -3.77406,-1.82699 -6.92487,3.16317 -3.64808,5.77772 l 0.90323,0.72069 10e-6,4.0349 1e-5,4.0349 h 1.32292 1.32291 z m 16.26523,9.85763 c -0.072,-0.18807 -0.1,-6.59272 -0.0621,-14.23256 l 0.0688,-13.89063 6.48229,0.002 c 6.43348,0.002 6.49342,0.007 7.96038,0.69316 1.81367,0.84818 3.30881,2.30205 4.02254,3.91149 0.71715,1.61714 0.76009,4.65811 0.093,6.58506 -0.53985,1.55936 -2.46135,3.70144 -3.82814,4.26758 l -0.81465,0.33744 3.03032,6.05625 c 1.66668,3.33093 3.03032,6.17629 3.03032,6.32303 0,0.40731 -4.68064,0.34674 -4.9407,-0.0639 -0.11519,-0.1819 -1.41237,-2.89057 -2.88261,-6.01926 l -2.67317,-5.68855 -2.55198,-0.0757 -2.55197,-0.0757 -0.0711,6.0288 -0.0711,6.02879 -2.05453,0.0773 c -1.49344,0.0562 -2.09028,-0.016 -2.18545,-0.26458 z m 12.5285,-16.22946 c 0.56276,-0.22517 1.30931,-0.79072 1.659,-1.25677 0.53373,-0.71132 0.63581,-1.15257 0.63581,-2.74823 0,-1.72881 -0.0682,-1.97201 -0.75318,-2.68701 -1.01905,-1.06366 -2.42745,-1.36526 -6.37544,-1.36526 h -3.32242 v 4.23334 4.23333 h 3.56652 c 2.60151,0 3.84338,-0.11077 4.58971,-0.4094 z m 11.68752,2.26148 v -14.2875 h 2.11667 2.11667 v 14.2875 14.2875 h -2.11667 -2.11667 z m 14.81667,1.98438 v -12.30313 h -3.70417 -3.70416 v -1.98767 -1.98768 l 9.59114,0.0694 9.59115,0.0695 0.0776,1.9109 0.0776,1.91089 -3.78176,0.0735 -3.78175,0.0735 -0.0688,12.23698 -0.0688,12.23698 h -2.11403 -2.11402 z m 38.75051,11.97239 c -0.0696,-0.1819 -0.0957,-6.58151 -0.0578,-14.22135 l 0.0688,-13.89063 8.7974,-0.0697 8.79739,-0.0697 v 2.12024 2.12023 h -6.61458 -6.61459 v 3.96875 3.96875 h 5.68855 5.68854 v 1.98438 1.98437 h -5.68854 -5.68855 v 4.10104 4.10104 h 6.61459 6.61458 v 2.11667 2.11666 h -8.73955 c -6.74772,0 -8.76842,-0.0754 -8.86619,-0.33073 z m 41.02762,0.056 c 0.0934,-0.15108 2.66025,-3.31087 5.70416,-7.02175 3.04391,-3.71088 5.53438,-6.86255 5.53438,-7.0037 0,-0.14115 -2.56462,-3.35591 -5.69914,-7.14391 l -5.69915,-6.88727 2.31112,0.0766 2.31112,0.0766 5.75746,6.9318 5.75747,6.9318 -5.87517,7.14922 -5.87517,7.14922 -2.19843,0.008 c -1.45404,0.005 -2.14094,-0.085 -2.02865,-0.26666 z M 103.84804,134.37102 c 0.97285,-8.05737 8.34405,-13.75983 16.21531,-12.54438 3.08663,0.47662 5.53959,1.75029 7.85753,4.0799 2.59241,2.60545 4.10335,5.86175 4.11172,8.86136 l 0.003,1.12448 h -1.5875 c -1.5767,0 -1.5875,-0.005 -1.5875,-0.77018 0,-0.4236 -0.22557,-1.49494 -0.50127,-2.38076 -1.9994,-6.42408 -8.94488,-9.55034 -15.0437,-6.77137 -2.91113,1.32648 -5.62905,4.82316 -6.0267,7.75352 -0.30149,2.22172 -0.25208,2.16879 -2.02456,2.16879 h -1.60016 z"
       id="path2" /></g></svg>
